<svg xmlns="http://www.w3.org/2000/svg" width="27.104" height="27.744" viewBox="0 0 27.104 27.744">
    <defs>
        <style>
            .cls-1{fill:#6fda44}
        </style>
    </defs>
    <path id="Path_3186" d="M15.264 36.992a15.058 15.058 0 0 1-7.328-1.712A11.925 11.925 0 0 1 3.1 30.5a14.391 14.391 0 0 1-1.7-7.072 15.1 15.1 0 0 1 1.808-7.552 12.414 12.414 0 0 1 4.96-4.912A14.674 14.674 0 0 1 15.3 9.248a14.97 14.97 0 0 1 7.152 1.6 11.074 11.074 0 0 1 4.528 4.288 11.722 11.722 0 0 1 1.536 5.92 12.11 12.11 0 0 1-.9 4.928 6.813 6.813 0 0 1-2.384 3.008 5.841 5.841 0 0 1-3.312.992 4.564 4.564 0 0 1-2.72-.736 2.914 2.914 0 0 1-1.216-2.016h-.064a5.411 5.411 0 0 1-4.7 2.752 4.493 4.493 0 0 1-3.6-1.552 6.208 6.208 0 0 1-1.328-4.176 9.959 9.959 0 0 1 .848-4.128 7.2 7.2 0 0 1 2.4-2.992 5.9 5.9 0 0 1 3.5-1.1 4.7 4.7 0 0 1 2.416.608A3.135 3.135 0 0 1 18.88 18.3h.064l.16-.8a1.156 1.156 0 0 1 .448-.832 1.666 1.666 0 0 1 1.024-.288 1.4 1.4 0 0 1 1.008.352 1.266 1.266 0 0 1 .368.96 1.907 1.907 0 0 1-.032.416l-1.088 6.176a7.338 7.338 0 0 0-.128 1.376 2.2 2.2 0 0 0 .416 1.472 1.691 1.691 0 0 0 1.344.48 2.228 2.228 0 0 0 1.472-.656 5.027 5.027 0 0 0 1.248-2.128 11.69 11.69 0 0 0 .512-3.776 9.53 9.53 0 0 0-1.168-4.72 8.219 8.219 0 0 0-3.52-3.312 12.316 12.316 0 0 0-5.708-1.212 11.378 11.378 0 0 0-5.62 1.376 9.8 9.8 0 0 0-3.9 4 12.9 12.9 0 0 0-1.424 6.24 12.247 12.247 0 0 0 1.312 5.808 9.227 9.227 0 0 0 3.776 3.84 11.869 11.869 0 0 0 5.824 1.36 12.826 12.826 0 0 0 3.872-.528 10.256 10.256 0 0 0 3.072-1.584 1.526 1.526 0 0 1 .96-.352 1.162 1.162 0 0 1 .9.384 1.325 1.325 0 0 1 .352.928 1.456 1.456 0 0 1-.608 1.184 10.07 10.07 0 0 1-3.568 1.824 16.645 16.645 0 0 1-4.984.704zm-1.408-9.376a3.546 3.546 0 0 0 2.384-.864 5.463 5.463 0 0 0 1.536-2.24 7.97 7.97 0 0 0 .528-2.88 3.449 3.449 0 0 0-.736-2.384 2.617 2.617 0 0 0-2.048-.816 3.379 3.379 0 0 0-2.288.848 5.258 5.258 0 0 0-1.472 2.176 7.847 7.847 0 0 0-.5 2.768 3.9 3.9 0 0 0 .72 2.48 2.275 2.275 0 0 0 1.876.912z" class="cls-1" data-name="Path 3186" transform="translate(-1.408 -9.248)"/>
</svg>
