<svg xmlns="http://www.w3.org/2000/svg" width="42.013" height="42.012" viewBox="0 0 42.013 42.012">
    <path fill="#6fda44" d="M21.01 42.013A21 21 0 0 1 6.154 6.154 21.005 21.005 0 1 1 35.86 35.86a20.865 20.865 0 0 1-14.85 6.153zm4.133-18.591v7.746h5.168c.6 0 .918-.643.918-1.279V11.818c0-.681-.36-1.122-.918-1.122H12.239c-.565 0-.93.44-.93 1.122V29.89c0 .635.319 1.279.93 1.279h9.584v-7.747h-2.767V20.1h2.766v-2.284a3.821 3.821 0 0 1 4.106-4.05c.95 0 1.7.058 2.256.1h.007l.271.02v2.893h-1.809c-1.277 0-1.51.451-1.51 1.34V20.1h3.026l-.4 3.32z" class="cls-1" transform="translate(0 -.001)"/>
</svg>
