<svg xmlns="http://www.w3.org/2000/svg" width="245.672" height="299.06" viewBox="0 0 245.672 299.06">
    <path id="Path_2758" fill="#0e1a2a" opacity=".2" d="M444.484 248.329q36.288 0 36.288 28.78 0 29.614-36.288 29.614h-9.176V320.9q0 18.77-10.427 28.363t-27.111 9.593q-16.684 0-26.9-9.593T360.647 320.9v-14.177h-93.013q-15.016 0-23.775-9.176t-8.759-22.94q0-14.6 9.176-27.529L363.567 76.9a38.405 38.405 0 0 1 14.807-12.72 41.818 41.818 0 0 1 18.561-4.38q15.85 0 27.111 10.01t11.262 27.946v150.573zm-133.889 0h50.052v-72.158z" class="cls-1" data-name="Path 2758" transform="translate(-235.1 -59.8)"/>
</svg>
