<svg xmlns="http://www.w3.org/2000/svg" xmlns:xlink="http://www.w3.org/1999/xlink" width="68" height="68" viewBox="0 0 68 68">
  <defs>
    <style>
      .cls-1 {
        fill: url(#linear-gradient);
      }
    </style>
    <linearGradient id="linear-gradient" x1="0.096" y1="0.098" x2="1" y2="1.088" gradientUnits="objectBoundingBox">
      <stop offset="0" stop-color="#51ffb9"/>
      <stop offset="0.627" stop-color="#4cb2ff"/>
      <stop offset="1" stop-color="#0bf"/>
    </linearGradient>
  </defs>
  <path id="help_1_" data-name="help (1)" class="cls-1" d="M17.054,21.25a7.969,7.969,0,1,0-7.969-7.969A7.977,7.977,0,0,0,17.054,21.25Zm0-10.625A2.656,2.656,0,1,1,14.4,13.281,2.659,2.659,0,0,1,17.054,10.625Zm31.954,5.312a7.969,7.969,0,1,0-7.969-7.969A7.977,7.977,0,0,0,49.008,15.937Zm0-10.625a2.656,2.656,0,1,1-2.656,2.656A2.659,2.659,0,0,1,49.008,5.312ZM60.576,31.344H68V26.031H62.142l-9.834-6.349-.017.027a7.923,7.923,0,0,0-4.478-1.381H43.472A6.659,6.659,0,0,0,38.1,21.067l-6.223,8.476v4.051l-11.431-8.5-.012.017a7.834,7.834,0,0,0-4.573-1.471H11.953v.013a7.95,7.95,0,0,0-6.178,3.535L0,36.283v9.936H5.312V37.827L9.3,31.552V54.527L3.023,65.192,7.6,67.886l7.007-11.913V28.953h1.249a2.6,2.6,0,0,1,2.6,2.656V45.317l9.164,6.641v10.73H23.508V68H43.429V62.953H56.976V58.039H68V52.727H64.812V42.418l-9.031-6.109V28.248ZM38.117,62.687h-5.18V49.246l-9.164-6.641V34.191l9.746,7.247h3.668V31.285L41.3,25.676V57.641H38.117ZM59.5,45.238v7.488H51.664v4.914H46.617v-34h1.2A2.659,2.659,0,0,1,50.469,26.3V39.129Zm0,0" transform="translate(0)"/>
</svg>
