<svg xmlns="http://www.w3.org/2000/svg" xmlns:xlink="http://www.w3.org/1999/xlink" width="107.38" height="99.16" viewBox="0 0 107.38 99.16">
    <defs>
        <style>
            .cls-1{fill:url(#linear-gradient)}.cls-2{fill:url(#linear-gradient-2)}.cls-3{fill:url(#linear-gradient-3)}.cls-4{fill:url(#linear-gradient-4)}.cls-5{fill:url(#linear-gradient-5)}
        </style>
        <linearGradient id="linear-gradient" x1=".184" x2=".62" y1=".155" y2=".927" gradientUnits="objectBoundingBox">
            <stop offset="0" stop-color="#51ffb9"/>
            <stop offset=".627" stop-color="#4cb2ff"/>
            <stop offset="1" stop-color="#0bf"/>
        </linearGradient>
        <linearGradient id="linear-gradient-2" x1=".68" x2=".177" y1="-.13" y2="1.63" gradientUnits="objectBoundingBox">
            <stop offset="0" stop-color="#51ffb9"/>
            <stop offset=".627" stop-color="#50c5ff"/>
            <stop offset="1" stop-color="#00b9ff"/>
        </linearGradient>
        <linearGradient id="linear-gradient-3" x1=".5" x2=".5" y2="1" xlink:href="#linear-gradient-2"/>
        <linearGradient id="linear-gradient-4" x2="1" y1=".5" y2=".5" xlink:href="#linear-gradient-2"/>
        <linearGradient id="linear-gradient-5" x1=".218" x2=".656" y2="1" xlink:href="#linear-gradient-2"/>
    </defs>
    <g id="Group_4619" data-name="Group 4619" transform="rotate(176 54.007 47.859)">
        <path id="Path_2611" d="M33.795.007c1.39-.547 11.316 27.948 11.954 28.6s53.993-11.1 55.662-9.387c2.441 2.5-45.232 34.063-45.824 35.122-.41.738 17.083 35.438 13.307 34.136s-31.973-22.234-32.6-22.234c-.743 0-30.073 25.179-32.816 26.168s11.94-37.291 11.94-39.22c0-1.221-14.094-5.526-13.57-6.639s18.564-7.646 19.822-8.869S32.407.554 33.795.007z" class="cls-1" data-name="Path 2611" transform="translate(3.527 .001)"/>
        <path id="Path_2612" d="M12.968 8.823c2.781 2.57 3.24 6.425 1.024 8.609s-6.267 1.87-9.048-.7S1.7 10.307 3.92 8.124s6.267-1.871 9.048.699z" class="cls-2" data-name="Path 2612" transform="translate(4.851 12.857)"/>
        <path id="Path_2613" d="M15.534 27.046a3.186 3.186 0 0 1 2.5 1.215 4.673 4.673 0 0 1 0 5.869 3.185 3.185 0 0 1-5.005 0 4.673 4.673 0 0 1 0-5.869 3.181 3.181 0 0 1 2.505-1.215z" class="cls-3" data-name="Path 2613" transform="translate(23.114 52.122)"/>
        <path id="Path_2614" d="M23.469 3.291c4.1-3.513 9.648-3.972 12.387-1.033s1.633 8.172-2.47 11.682S23.738 17.912 21 14.97 19.368 6.8 23.469 3.291z" class="cls-4" data-name="Path 2614" transform="translate(37.571 .624)"/>
        <path id="Path_2615" d="M29.689 20.745c4.853-3.472 12.724-2.081 17.589 3.1s4.877 12.188.029 15.657S34.58 41.586 29.718 36.4s-4.88-12.189-.029-15.655z" class="cls-5" data-name="Path 2615" transform="translate(50.217 36.297)"/>
        <path id="Path_2616" d="M3.684 19.294c2.953-1.191 6.261-.108 7.388 2.424s-.351 5.553-3.3 6.753-6.265.104-7.392-2.427.351-5.553 3.304-6.75z" class="cls-3" data-name="Path 2616" transform="translate(0 36.25)"/>
    </g>
</svg>
