<svg xmlns="http://www.w3.org/2000/svg" width="42.014" height="42.012" viewBox="0 0 42.014 42.012">
    <defs>
        <style>
            .cls-1{fill:#6fda44}
        </style>
    </defs>
    <path id="Exclusion_2" d="M21.01 42.012A21 21 0 0 1 6.155 6.156a21.006 21.006 0 0 1 29.707 29.705 20.86 20.86 0 0 1-14.852 6.151zM19.09 27.35a.891.891 0 0 1 .538.172l5.6 4.067a.635.635 0 0 0 .376.125.67.67 0 0 0 .654-.526l4.1-19.724a.645.645 0 0 0-.133-.549.67.67 0 0 0-.509-.243.727.727 0 0 0-.237.046L6.627 19.536a.653.653 0 0 0 .006 1.224l5.567 2.078 2.157 6.928a.645.645 0 0 0 .625.471.663.663 0 0 0 .416-.153l3.1-2.534a1 1 0 0 1 .592-.2zm-4.112-.042a.283.283 0 0 1-.272-.209l-1.174-4.136a1.092 1.092 0 0 1 .48-1.229l10.878-6.705a.194.194 0 0 1 .1-.032.192.192 0 0 1 .173.125.189.189 0 0 1-.046.209l-8.977 8.344a1.864 1.864 0 0 0-.578 1.118l-.307 2.268a.281.281 0 0 1-.277.247z" class="cls-1" data-name="Exclusion 2"/>
</svg>
