<svg id="right-quotation-sign" xmlns="http://www.w3.org/2000/svg" width="46.914" height="38.178" viewBox="0 0 46.914 38.178">
  <g id="Group_2821" data-name="Group 2821" transform="translate(0 0)">
    <path id="Path_2231" data-name="Path 2231" fill="#fff" d="M52.866,24.585C55.358,15.673,61.5,9.2,67.48,9.2a8.21,8.21,0,0,1,1.426.124.947.947,0,0,1,.751,1.19l-1.23,4.4a.959.959,0,0,1-.954.693l-.1,0c-2.216,0-6.266,3.321-8.33,10.7-.082.293-.159.592-.234.9A10.787,10.787,0,0,1,66.4,26.5a10.635,10.635,0,1,1-5.728,20.484c-3.725-1.041-6.525-4.133-7.885-8.705A25.414,25.414,0,0,1,52.866,24.585Z" transform="translate(-51.884 -9.204)"/>
    <path id="Path_2232" data-name="Path 2232" fill="#fff" d="M15.6,9.206a8.2,8.2,0,0,1,1.426.123.948.948,0,0,1,.751,1.19l-1.23,4.4a.953.953,0,0,1-.954.693l-.1,0c-2.216,0-6.266,3.321-8.331,10.7-.082.295-.16.594-.234.9a10.788,10.788,0,0,1,7.586-.715,10.635,10.635,0,1,1-5.73,20.484C5.061,45.946,2.261,42.853.9,38.281a25.418,25.418,0,0,1,.083-13.7C3.476,15.674,9.622,9.206,15.6,9.206Z" transform="translate(24.628 -9.205)"/>
  </g>
</svg>
