<svg xmlns="http://www.w3.org/2000/svg" width="46.914" height="38.178" viewBox="0 0 46.914 38.178">
  <defs>
    <style>
      .cls-1 {
        fill: #fff;
      }
    </style>
  </defs>
  <g id="right-quotation-sign" transform="translate(0 -9.204)">
    <g id="Group_2821" data-name="Group 2821" transform="translate(0 9.204)">
      <path id="Path_2231" data-name="Path 2231" class="cls-1" d="M73.187,24.584C70.7,15.673,64.548,9.2,58.573,9.2a8.21,8.21,0,0,0-1.426.124.947.947,0,0,0-.751,1.19l1.23,4.4a.959.959,0,0,0,.954.693l.1,0c2.216,0,6.266,3.321,8.33,10.7.082.293.159.592.234.9a10.788,10.788,0,0,0-7.586-.715,10.635,10.635,0,1,0,5.728,20.483c3.725-1.041,6.525-4.133,7.885-8.705A25.412,25.412,0,0,0,73.187,24.584Z" transform="translate(-27.255 -9.204)"/>
      <path id="Path_2232" data-name="Path 2232" class="cls-1" d="M6.688,9.206a8.2,8.2,0,0,0-1.426.123.948.948,0,0,0-.751,1.19l1.23,4.4a.953.953,0,0,0,.954.693l.1,0c2.216,0,6.266,3.321,8.331,10.7.082.295.16.594.234.9A10.788,10.788,0,0,0,7.771,26.5,10.635,10.635,0,1,0,13.5,46.985c3.724-1.041,6.524-4.133,7.885-8.705a25.415,25.415,0,0,0-.083-13.7C18.81,15.674,12.664,9.206,6.688,9.206Z" transform="translate(0 -9.205)"/>
    </g>
  </g>
</svg>
