<svg xmlns="http://www.w3.org/2000/svg" xmlns:xlink="http://www.w3.org/1999/xlink" width="58.533" height="69.998" viewBox="0 0 58.533 69.998">
  <defs>
    <style>
      .cls-1 {
        fill: url(#linear-gradient);
      }
    </style>
    <linearGradient id="linear-gradient" x1="0.134" y1="0.123" x2="0.919" y2="0.967" gradientUnits="objectBoundingBox">
      <stop offset="0" stop-color="#51ffb9"/>
      <stop offset="0.627" stop-color="#4cb2ff"/>
      <stop offset="1" stop-color="#0bf"/>
    </linearGradient>
  </defs>
  <path id="shield_1_" data-name="shield (1)" class="cls-1" d="M93.683,8.913h0C87.052,7.724,80.946,4.1,77.9,2.05a11.979,11.979,0,0,0-13.4,0C61.442,4.1,55.336,7.724,48.7,8.913a8.209,8.209,0,0,0-6.778,8.079v16.5a30.483,30.483,0,0,0,4.533,15.8,45.847,45.847,0,0,0,9.691,11.177A63.656,63.656,0,0,0,70.082,69.5L71.194,70l1.112-.495a63.656,63.656,0,0,0,13.93-9.035A45.847,45.847,0,0,0,95.927,49.29a30.48,30.48,0,0,0,4.533-15.8v-16.5A8.209,8.209,0,0,0,93.683,8.913ZM94.99,33.495c0,8.128-4.106,15.773-12.2,22.725a60.687,60.687,0,0,1-11.592,7.744c-4.84-2.459-23.8-13.2-23.8-30.469v-16.5A2.744,2.744,0,0,1,49.67,14.3c7.617-1.365,14.47-5.416,17.877-7.709a6.508,6.508,0,0,1,7.294,0C78.248,8.881,85.1,12.932,92.718,14.3h0a2.744,2.744,0,0,1,2.272,2.695ZM84.2,21.336l4.07,3.655L68.565,46.933,55.632,34.622,59.4,30.659l8.855,8.429Z" transform="translate(-41.927)"/>
</svg>
