<?xml version="1.0" encoding="utf-8"?>
<!-- Generator: Adobe Illustrator 16.0.0, SVG Export Plug-In . SVG Version: 6.00 Build 0)  -->
<!DOCTYPE svg PUBLIC "-//W3C//DTD SVG 1.1//EN" "http://www.w3.org/Graphics/SVG/1.1/DTD/svg11.dtd">
<svg version="1.1" id="Layer_1" xmlns="http://www.w3.org/2000/svg" xmlns:xlink="http://www.w3.org/1999/xlink" x="0px" y="0px"
	 width="1685px" height="342px" viewBox="90 50 1685 342" enable-background="new 90 50 1685 342" xml:space="preserve">
<g id="Group_4814" transform="translate(-73 -4822)">
	<g transform="matrix(1, 0, 0, 1, 73, 4822)">
		<path id="Rectangle_2246-2" d="M108,50h1559c9.941,0,18,8.059,18,18v306c0,9.941-8.059,18-18,18H108c-9.941,0-18-8.059-18-18V68
			C90,58.059,98.059,50,108,50z"/>
	</g>
	<g id="Mask_Group_77" transform="translate(0 -543)">
		<g id="Group_4588" transform="translate(25.074 5101.456)">
			<path id="Path_2611" d="M391.216,0.082c14.574-5.738,118.618,292.954,125.306,299.8c6.72,6.873,565.965-116.347,583.454-98.4
				c25.589,26.233-474.133,357.049-480.331,368.158c-4.3,7.731,179.063,371.47,139.482,357.816S423.984,694.391,417.388,694.391
				c-7.793,0-315.23,263.93-343.979,274.301C44.69,979.153,198.562,577.801,198.562,557.579c0-12.795-147.735-57.928-142.243-69.587
				c5.492-11.659,194.587-80.142,207.78-92.967C277.354,382.26,376.672,5.82,391.216,0.082z"/>
			<path id="Path_2612" d="M186.779,227.253c29.148,26.939,33.965,67.348,10.739,90.237c-23.227,22.92-65.691,19.606-94.839-7.333
				c-29.148-26.939-33.965-67.348-10.738-90.238S157.631,200.319,186.779,227.253z"/>
			<path id="Path_2613" d="M405.114,829.853c10.248,0,18.993,4.245,26.233,12.733c7.241,8.467,10.862,18.725,10.862,30.774
				c0,12.027-3.621,22.275-10.862,30.743c-7.24,8.5-15.985,12.744-26.233,12.733c-10.247,0-18.992-4.244-26.232-12.733
				c-7.21-8.468-10.862-18.716-10.862-30.743c0-12.028,3.621-22.307,10.862-30.774C386.091,834.118,394.866,829.853,405.114,829.853
				z"/>
			<path id="Path_2614" d="M639.834,41.042C682.85,4.223,740.962-0.594,769.681,30.211c28.719,30.805,17.121,85.665-25.899,122.453
				c-42.986,36.819-101.13,41.636-129.848,10.8C585.281,132.659,596.848,77.83,639.834,41.042z"/>
			<path id="Path_2615" d="M837.58,597.925c50.871-36.389,133.376-21.814,184.37,32.493c50.993,54.308,51.116,127.761,0.307,164.119
				c-50.841,36.42-133.406,21.846-184.37-32.492C786.862,707.737,786.74,634.253,837.58,597.925z"/>
			<path id="Path_2616" d="M38.615,582.216c30.958-12.488,65.629-1.135,77.442,25.4s-3.682,58.2-34.64,70.784
				c-30.958,12.487-65.629,1.1-77.442-25.437C-7.869,626.46,7.656,594.765,38.615,582.216z"/>
		</g>
		<g id="Group_4589" transform="translate(1283 5172.521)">
			<path id="Path_2611-2" d="M285.373,0.06c10.631-4.185,86.525,213.7,91.405,218.688c4.899,5.013,412.845-84.87,425.6-71.777
				c18.666,19.136-345.858,260.451-350.379,268.553c-3.133,5.64,130.617,270.97,101.745,261.011s-244.468-170.009-249.28-170.009
				c-5.685,0-229.944,192.524-250.917,200.089c-20.948,7.632,91.294-285.138,91.294-299.887c0-9.333-107.766-42.256-103.76-50.761
				c4.006-8.505,141.942-58.46,151.565-67.815C202.316,278.841,274.764,4.245,285.373,0.06z"/>
			<path id="Path_2612-2" d="M136.246,165.771c21.262,19.651,24.775,49.127,7.833,65.823c-16.943,16.719-47.918,14.3-69.181-5.349
				c-21.264-19.649-24.775-49.127-7.832-65.823C84.009,143.726,114.984,146.12,136.246,165.771z"/>
			<path id="Path_2613-2" d="M295.512,605.339c7.476,0,13.854,3.096,19.137,9.288c5.281,6.177,7.923,13.659,7.923,22.447
				c0,8.773-2.642,16.249-7.923,22.427c-5.282,6.199-11.661,9.296-19.137,9.287c-7.475-0.008-13.854-3.104-19.136-9.286
				c-5.299-6.253-8.118-14.233-7.923-22.427c0-8.773,2.641-16.256,7.923-22.447C281.636,608.45,288.037,605.339,295.512,605.339z"/>
			<path id="Path_2614-2" d="M466.729,29.939c31.38-26.858,73.77-30.371,94.719-7.9s12.488,62.489-18.891,89.324
				c-31.355,26.857-73.769,30.37-94.717,7.877C426.936,96.769,435.373,56.774,466.729,29.939z"/>
			<path id="Path_2615-2" d="M610.977,436.159c37.108-26.546,97.288-15.913,134.488,23.702c37.2,39.615,37.287,93.2,0.225,119.718
				c-37.086,26.567-97.314,15.937-134.489-23.699C573.981,516.261,573.891,462.659,610.977,436.159z"/>
			<path id="Path_2616-2" d="M28.168,424.7c22.583-9.109,47.874-0.828,56.49,18.532c8.616,19.36-2.686,42.457-25.269,51.633
				c-22.583,9.109-47.874,0.806-56.489-18.554C-5.74,456.973,5.585,433.854,28.168,424.7z"/>
		</g>
	</g>
</g>
</svg>
