<svg xmlns="http://www.w3.org/2000/svg" width="32" height="31.992" viewBox="0 0 32 31.992">
  <path id="technical-support_1_" data-name="technical-support (1)" d="M23.307,17.54l-3.486,3.375A23.808,23.808,0,0,1,14.8,17.031,24.185,24.185,0,0,1,10.9,11.988L14.269,8.57,5.75,0,1.553,4.17A5.279,5.279,0,0,0,.525,10.2a46.33,46.33,0,0,0,8.9,12.365,46.328,46.328,0,0,0,12.365,8.9,5.229,5.229,0,0,0,2.288.526,5.3,5.3,0,0,0,3.746-1.554L32,26.246Zm2.747,11.133a2.78,2.78,0,0,1-3.175.546A43.8,43.8,0,0,1,11.189,20.8,43.8,43.8,0,0,1,2.772,9.112a2.779,2.779,0,0,1,.544-3.173L5.739,3.533l5.014,5.044L7.878,11.488l.347.779a24.183,24.183,0,0,0,4.811,6.53,23.754,23.754,0,0,0,6.506,4.784l.768.338,2.967-2.873,5.193,5.2ZM24.073,15.818a7.9,7.9,0,1,0-7.9-7.9A7.909,7.909,0,0,0,24.073,15.818Zm0-13.3a5.4,5.4,0,1,1-5.4,5.4A5.408,5.408,0,0,1,24.073,2.516ZM27.231,9.2h-4.5V3.952h2.5V6.7h2Zm0,0" transform="translate(0.001 -0.001)"/>
</svg>
