<svg xmlns="http://www.w3.org/2000/svg" width="40" height="40" viewBox="0 0 40 40">
  <path fill="#fff" d="M20,40A20,20,0,0,1,5.859,5.859,20,20,0,1,1,34.142,34.142,19.865,19.865,0,0,1,20,40ZM9.895,26.245h0a11.3,11.3,0,0,0,6.2,1.864c7.209,0,11.516-6.005,11.516-11.811,0-.149,0-.3-.008-.447l0-.09a8.184,8.184,0,0,0,2.017-2.15,7.836,7.836,0,0,1-2.323.654,4.116,4.116,0,0,0,1.781-2.3,7.906,7.906,0,0,1-2.571,1.006,4.016,4.016,0,0,0-2.955-1.307A4.1,4.1,0,0,0,19.51,15.82a4.039,4.039,0,0,0,.108.942,11.425,11.425,0,0,1-8.339-4.336,4.229,4.229,0,0,0,1.285,5.542,3.789,3.789,0,0,1-1.8-.517V17.5a4.116,4.116,0,0,0,3.209,4.073,4.282,4.282,0,0,1-1.112.147,4.047,4.047,0,0,1-.759-.073,4.07,4.07,0,0,0,3.782,2.881,7.956,7.956,0,0,1-5.03,1.776A8.248,8.248,0,0,1,9.895,26.245Z" transform="translate(0 -0.001)"/>
</svg>
