<svg xmlns="http://www.w3.org/2000/svg" width="42.013" height="42.012" viewBox="0 0 42.013 42.012">
    <path fill="#6fda44" d="M21.01 42.013A21 21 0 0 1 6.154 6.154 21.005 21.005 0 1 1 35.86 35.86a20.865 20.865 0 0 1-14.85 6.153zM10.393 27.565a11.868 11.868 0 0 0 6.517 1.958c7.571 0 12.1-6.308 12.1-12.406 0-.156 0-.315-.009-.469v-.095a8.6 8.6 0 0 0 2.111-2.253 8.231 8.231 0 0 1-2.44.687 4.323 4.323 0 0 0 1.871-2.413 8.3 8.3 0 0 1-2.7 1.057 4.218 4.218 0 0 0-3.1-1.373 4.31 4.31 0 0 0-4.248 4.361 4.242 4.242 0 0 0 .113.99 12 12 0 0 1-8.758-4.554 4.442 4.442 0 0 0 1.35 5.821 3.98 3.98 0 0 1-1.887-.543v.05a4.323 4.323 0 0 0 3.37 4.278 4.5 4.5 0 0 1-1.168.154 4.251 4.251 0 0 1-.8-.077 4.275 4.275 0 0 0 3.973 3.026 8.356 8.356 0 0 1-5.288 1.862 8.663 8.663 0 0 1-1.007-.061z" class="cls-1" transform="translate(0 -.001)"/>
</svg>
