<svg xmlns="http://www.w3.org/2000/svg" width="52" height="52" viewBox="0 0 52 52">
    <defs>
        <style>
            .cls-1251{fill:#6fda44}.cls-1252{fill:#fff}
        </style>
    </defs>
    <g id="Group_5137" data-name="Group 5137" transform="translate(-335 -1577)">
        <g id="Group_5136" data-name="Group 5136" transform="translate(335 1577)">
            <rect id="Rectangle_2101" width="52" height="52" class="cls-1251" data-name="Rectangle 2101" rx="26"/>
        </g>
        <g id="user_1_" data-name="user (1)" transform="translate(339.54 1581.539)">
            <path id="Path_3146" d="M16.847 35.1l-6.385 3.48a5.738 5.738 0 0 0-1.025.729 21.388 21.388 0 0 0 27.48.071 5.665 5.665 0 0 0-1.126-.754l-6.838-3.419a2.608 2.608 0 0 1-1.442-2.332v-2.683a10.328 10.328 0 0 0 .647-.832 15.734 15.734 0 0 0 2.126-4.283 2.148 2.148 0 0 0 1.523-2.043V20.17a2.138 2.138 0 0 0-.716-1.587v-4.14S31.942 8 23.218 8s-7.874 6.442-7.874 6.442v4.14a2.135 2.135 0 0 0-.716 1.587v2.864a2.147 2.147 0 0 0 .99 1.8 14.211 14.211 0 0 0 2.589 5.357v2.617a2.61 2.61 0 0 1-1.36 2.293z" class="cls-1252" data-name="Path 3146" transform="translate(-1.816 -1.539)"/>
            <g id="Group_5071" data-name="Group 5071">
                <path id="Path_3147" d="M21.767 0A21.388 21.388 0 0 0 7.63 37.763a5.687 5.687 0 0 1 1.015-.722l6.386-3.483a2.609 2.609 0 0 0 1.359-2.29v-2.616A14.2 14.2 0 0 1 13.8 23.3a2.148 2.148 0 0 1-.99-1.8v-2.87a2.138 2.138 0 0 1 .716-1.587V12.9s-.85-6.442 7.874-6.442 7.874 6.442 7.874 6.442v4.14a2.135 2.135 0 0 1 .716 1.587v2.864a2.148 2.148 0 0 1-1.523 2.043 15.734 15.734 0 0 1-2.126 4.283 10.328 10.328 0 0 1-.647.832v2.683a2.607 2.607 0 0 0 1.442 2.332l6.838 3.419a5.694 5.694 0 0 1 1.123.753A21.4 21.4 0 0 0 21.767 0z" class="cls-1251" data-name="Path 3147"/>
            </g>
        </g>
    </g>
</svg>
