<svg xmlns="http://www.w3.org/2000/svg" width="22" height="22" viewBox="0 0 22 22">
    <defs>
        <style>
            .cls-1,.cls-6{fill:none}.cls-1{stroke:#fff;stroke-width:2px}.cls-2{fill:#fff}.cls-3{opacity:0}.cls-4{fill:#6fda44}.cls-5{stroke:none}
        </style>
    </defs>
    <g id="Group_5497" data-name="Group 5497" transform="translate(-7304.31 2776.498)">
        <g id="Group_5496" data-name="Group 5496" transform="translate(7304.808 -2776)">
            <g id="Rectangle_2101" class="cls-1" data-name="Rectangle 2101" transform="translate(-.498 -.498)">
                <rect width="22" height="22" class="cls-5" rx="11"/>
                <rect width="20" height="20" x="1" y="1" class="cls-6" rx="10"/>
            </g>
        </g>
        <g id="user_1_" data-name="user (1)" transform="translate(7305.806 -2775.195)">
            <path id="Path_3146" d="M12.794 20.277L9.9 21.855a2.6 2.6 0 0 0-.464.33 9.69 9.69 0 0 0 12.45.032 2.566 2.566 0 0 0-.51-.342l-3.1-1.549a1.181 1.181 0 0 1-.653-1.057v-1.214a4.68 4.68 0 0 0 .293-.377 7.128 7.128 0 0 0 .963-1.941.973.973 0 0 0 .69-.926v-1.3a.969.969 0 0 0-.324-.719V10.92S19.633 8 15.68 8s-3.567 2.919-3.567 2.919V12.8a.967.967 0 0 0-.324.719v1.3a.973.973 0 0 0 .449.816 6.438 6.438 0 0 0 1.173 2.427v1.178a1.183 1.183 0 0 1-.617 1.037z" class="cls-2" data-name="Path 3146" transform="translate(-5.984 -5.074)"/>
            <g id="Group_5071" class="cls-3" data-name="Group 5071">
                <path id="Path_3147" d="M9.862 0a9.69 9.69 0 0 0-6.4 17.107 2.577 2.577 0 0 1 .46-.327L6.81 15.2a1.182 1.182 0 0 0 .616-1.037v-1.182a6.432 6.432 0 0 1-1.173-2.427.973.973 0 0 1-.453-.816V8.44a.969.969 0 0 1 .324-.719V5.846S5.743 2.927 9.7 2.927s3.567 2.919 3.567 2.919v1.875a.967.967 0 0 1 .324.719v1.3a.973.973 0 0 1-.69.926 7.128 7.128 0 0 1-.963 1.941 4.679 4.679 0 0 1-.293.377V14.2a1.181 1.181 0 0 0 .653 1.057l3.1 1.549a2.58 2.58 0 0 1 .509.341A9.694 9.694 0 0 0 9.862 0z" class="cls-4" data-name="Path 3147"/>
            </g>
        </g>
    </g>
</svg>
