<svg xmlns="http://www.w3.org/2000/svg" width="40" height="40" viewBox="0 0 40 40">
  <path id="Exclusion_2" data-name="Exclusion 2" fill="#343434" d="M20,40A20,20,0,0,1,5.861,5.859,20,20,0,1,1,34.144,34.142,19.867,19.867,0,0,1,20,40Zm.228-26.6c-.061,0-6.111,0-7.621.411A2.484,2.484,0,0,0,10.891,15.6a26.173,26.173,0,0,0-.407,4.725,26.115,26.115,0,0,0,.407,4.762,2.488,2.488,0,0,0,1.719,1.716c1.507.405,7.56.41,7.621.41s6.113,0,7.62-.41a2.487,2.487,0,0,0,1.719-1.787,26.1,26.1,0,0,0,.407-4.691,26.11,26.11,0,0,0-.407-4.761,2.484,2.484,0,0,0-1.719-1.788A63.6,63.6,0,0,0,20.232,13.4Zm-1.994,9.846V17.406l5.095,2.921L18.24,23.248Z" transform="translate(-0.002)"/>
</svg>
